<svg aria-hidden="true" style="position: absolute; width: 0; height: 0; overflow: hidden;" version="1.1" xmlns="http://www.w3.org/2000/svg" xmlns:xlink="http://www.w3.org/1999/xlink">
<defs>
<symbol id="icon-light-bulb-svgrepo-com-1" viewBox="0 0 32 32">
<path d="M18.692 20.015c1.24-0.318 2.317-1.018 3.115-2.023 0.978-1.233 1.412-2.772 1.221-4.334s-0.983-2.953-2.23-3.913c-1.208-0.931-2.714-1.345-4.241-1.166s-2.895 0.932-3.855 2.118c-0.822 1.017-1.271 2.243-1.297 3.547-0.043 2.116-0.772 4.171-2.054 5.786l-1.402 1.767c-0.622 0.784-0.491 1.927 0.293 2.549l1.322 1.049c0.784 0.622 1.927 0.491 2.55-0.293l1.402-1.767c1.296-1.633 3.081-2.784 5.174-3.321zM12.154 14.259c0.023-1.136 0.414-2.205 1.131-3.092 1.722-2.13 4.888-2.502 7.057-0.83 1.087 0.84 1.778 2.050 1.944 3.412s-0.212 2.704-1.065 3.778c-0.696 0.876-1.635 1.486-2.715 1.763-2.205 0.566-4.101 1.763-5.492 3.466l-2.989-2.372c1.329-1.725 2.084-3.894 2.129-6.125zM8.694 22.063l0.188-0.237 2.721 2.719-0.074 0.093c-0.039 0.049-0.082 0.092-0.127 0.132l-2.709-2.707zM9.35 21.236l0.211-0.266 2.993 2.376-0.483 0.609-2.721-2.719zM8.708 23.76c-0.315-0.25-0.45-0.642-0.388-1.013l2.292 2.29c-0.206-0.015-0.409-0.090-0.582-0.228l-1.322-1.049z"></path>
<path d="M13.992 12.507c0.099-0.171 0.213-0.338 0.339-0.494 0.13-0.161 0.105-0.396-0.056-0.526-0.16-0.129-0.396-0.105-0.526 0.056-0.151 0.186-0.287 0.385-0.406 0.59-0.094 0.163-0.052 0.366 0.091 0.479 0.014 0.011 0.030 0.022 0.046 0.031 0.179 0.103 0.408 0.042 0.511-0.137z"></path>
<path d="M12.185 18.324c0.030 0.024 0.065 0.044 0.103 0.058 0.194 0.071 0.409-0.028 0.48-0.221 0.459-1.245 0.705-2.548 0.732-3.875 0.004-0.219 0.028-0.438 0.069-0.65 0.040-0.203-0.092-0.399-0.295-0.439s-0.399 0.092-0.439 0.295c-0.050 0.255-0.078 0.517-0.083 0.779-0.025 1.243-0.256 2.464-0.686 3.631-0.057 0.155-0.005 0.325 0.118 0.422z"></path>
<path d="M19.52 17.811c-0.098-0.182-0.325-0.25-0.506-0.152-0.264 0.142-0.547 0.252-0.842 0.328-0.2 0.051-0.321 0.255-0.269 0.455 0.021 0.082 0.068 0.151 0.13 0.2 0.089 0.070 0.208 0.1 0.326 0.070 0.353-0.091 0.693-0.223 1.010-0.393 0.182-0.098 0.25-0.324 0.152-0.506z"></path>
<path d="M19.563 11.437c1.615 1.282 1.886 3.638 0.604 5.253-0.073 0.092-0.151 0.181-0.231 0.265-0.143 0.149-0.137 0.386 0.012 0.529 0.008 0.008 0.017 0.016 0.026 0.023 0.15 0.119 0.368 0.106 0.503-0.035 0.096-0.1 0.189-0.207 0.276-0.317 1.538-1.938 1.213-4.766-0.725-6.304-0.162-0.128-0.397-0.101-0.525 0.060s-0.101 0.397 0.060 0.525z"></path>
<path d="M21.266 9.292c0.162 0.128 0.397 0.101 0.525-0.060l1.302-1.64c0.128-0.162 0.101-0.397-0.060-0.525s-0.397-0.101-0.525 0.060l-1.302 1.64c-0.128 0.162-0.101 0.397 0.060 0.525z"></path>
<path d="M17.843 7.518c-0.020 0.137 0.036 0.268 0.138 0.348 0.050 0.039 0.11 0.067 0.177 0.077 0.204 0.030 0.394-0.111 0.425-0.315l0.307-2.071c0.030-0.204-0.111-0.394-0.315-0.425s-0.395 0.111-0.425 0.315l-0.307 2.071z"></path>
<path d="M20.857 22.66l-0.769-1.947c-0.076-0.192-0.293-0.286-0.485-0.21s-0.286 0.293-0.21 0.485l0.769 1.947c0.025 0.063 0.065 0.116 0.115 0.155 0.101 0.080 0.241 0.106 0.37 0.055 0.192-0.076 0.286-0.293 0.21-0.485z"></path>
<path d="M13.538 6.173l0.769 1.947c0.025 0.063 0.065 0.116 0.115 0.155 0.101 0.080 0.241 0.106 0.37 0.055 0.192-0.076 0.286-0.293 0.21-0.485l-0.769-1.947c-0.076-0.192-0.293-0.286-0.485-0.21s-0.286 0.293-0.21 0.485z"></path>
<path d="M24.488 19.726l-1.64-1.302c-0.162-0.128-0.397-0.101-0.525 0.060s-0.101 0.397 0.060 0.525l1.64 1.302c0.162 0.128 0.397 0.101 0.525-0.060s0.101-0.397-0.060-0.525z"></path>
<path d="M12.073 10.348c0.128-0.162 0.101-0.397-0.060-0.525l-1.64-1.302c-0.162-0.128-0.397-0.101-0.525 0.060s-0.101 0.397 0.060 0.525l1.64 1.302c0.162 0.128 0.397 0.101 0.525-0.060z"></path>
<path d="M23.809 15.725c0.050 0.039 0.11 0.067 0.177 0.077l2.071 0.307c0.204 0.030 0.394-0.111 0.425-0.315s-0.111-0.395-0.315-0.425l-2.071-0.307c-0.204-0.030-0.395 0.111-0.425 0.315-0.020 0.137 0.036 0.268 0.138 0.348z"></path>
<path d="M10.409 13.031l-2.071-0.307c-0.204-0.030-0.394 0.111-0.425 0.315-0.020 0.137 0.036 0.268 0.138 0.348 0.050 0.039 0.11 0.067 0.177 0.077l2.071 0.307c0.204 0.030 0.395-0.111 0.425-0.315s-0.111-0.395-0.315-0.425z"></path>
<path d="M23.284 12.012c0.025 0.063 0.065 0.116 0.115 0.155 0.101 0.080 0.241 0.106 0.37 0.055l1.947-0.769c0.192-0.076 0.286-0.293 0.21-0.485s-0.293-0.286-0.485-0.21l-1.947 0.769c-0.192 0.076-0.286 0.293-0.21 0.485z"></path>
</symbol>
<symbol id="icon-close" viewBox="0 0 32 32">
<path d="M32 3.223l-3.223-3.223-12.777 12.777-12.777-12.777-3.223 3.223 12.777 12.777-12.777 12.777 3.223 3.223 12.777-12.777 12.777 12.777 3.223-3.223-12.777-12.777 12.777-12.777z"></path>
</symbol>
<symbol id="icon-person-black-18dp-1" viewBox="0 0 32 32">
<path d="M16 16c2.947 0 5.333-2.387 5.333-5.333s-2.387-5.333-5.333-5.333c-2.947 0-5.333 2.387-5.333 5.333s2.387 5.333 5.333 5.333zM16 18.667c-3.56 0-10.667 1.787-10.667 5.333v1.333c0 0.733 0.6 1.333 1.333 1.333h18.667c0.733 0 1.333-0.6 1.333-1.333v-1.333c0-3.547-7.107-5.333-10.667-5.333z"></path>
</symbol>
<symbol id="icon-phone-black-18dp-1" viewBox="0 0 32 32">
<path d="M24.882 19.773l-3.268-0.373c-0.785-0.090-1.557 0.18-2.11 0.733l-2.367 2.367c-3.641-1.853-6.626-4.825-8.478-8.478l2.38-2.38c0.553-0.553 0.823-1.325 0.733-2.11l-0.373-3.242c-0.154-1.299-1.248-2.277-2.56-2.277h-2.226c-1.454 0-2.663 1.209-2.573 2.663 0.682 10.987 9.469 19.761 20.443 20.443 1.454 0.090 2.663-1.119 2.663-2.573v-2.226c0.013-1.3-0.965-2.393-2.264-2.547z"></path>
</symbol>
<symbol id="icon-email-black-18dp-1" viewBox="0 0 32 32">
<path d="M26.667 5.333h-21.333c-1.467 0-2.653 1.2-2.653 2.667l-0.013 16c0 1.467 1.2 2.667 2.667 2.667h21.333c1.467 0 2.667-1.2 2.667-2.667v-16c0-1.467-1.2-2.667-2.667-2.667zM26.133 11l-9.427 5.893c-0.427 0.267-0.987 0.267-1.413 0l-9.427-5.893c-0.333-0.213-0.533-0.573-0.533-0.96 0-0.893 0.973-1.427 1.733-0.96l8.933 5.587 8.933-5.587c0.76-0.467 1.733 0.067 1.733 0.96 0 0.387-0.2 0.747-0.533 0.96z"></path>
</symbol>
<symbol id="icon-check" viewBox="0 0 16 15">
    <path d="M3.95703 7.75166L3.88825 7.68604L3.81923 7.75141L2.93123 8.59258L2.85486 8.66492L2.93097 8.73753L6.42671 12.0724L6.49574 12.1382L6.56476 12.0724L14.069 4.91352L14.1449 4.84116L14.069 4.76881L13.1873 3.92764L13.1183 3.86183L13.0493 3.92761L6.49577 10.1735L3.95703 7.75166Z" />
</symbol>
<symbol id="icon-Group-28" viewBox="0 0 56 32">
<path fill="#39515e" style="fill: var(--color1, #39515e)" d="M1.882 0h52.706c1.040 0 1.882 0.843 1.882 1.882v1.882c0 1.040-0.843 1.882-1.882 1.882h-52.706c-1.040 0-1.882-0.843-1.882-1.882v-1.882c0-1.040 0.843-1.882 1.882-1.882z"></path>
<path fill="#39515e" style="fill: var(--color1, #39515e)" d="M1.882 13.176h52.706c1.040 0 1.882 0.843 1.882 1.882v1.882c0 1.040-0.843 1.882-1.882 1.882h-52.706c-1.040 0-1.882-0.843-1.882-1.882v-1.882c0-1.040 0.843-1.882 1.882-1.882z"></path>
<path fill="#39515e" style="fill: var(--color1, #39515e)" d="M1.882 26.353h36.178c1.040 0 1.882 0.843 1.882 1.882v1.882c0 1.040-0.843 1.882-1.882 1.882h-36.178c-1.040 0-1.882-0.843-1.882-1.882v-1.882c0-1.040 0.843-1.882 1.882-1.882z"></path>
</symbol>
</defs>
</svg>
